# xmcd
#
# Track frame offsets: 
#        150
#        17685
#        36665
#        53565
#        72375
#        99827
#        117910
#        138110
#        161647
#        177295
#        196745
#
# Disc length: 2918 seconds
#
# Revision: 2
# Processed by: cddbd v1.5.2PL0 Copyright (c) Steve Scherf et al.
# Submitted via: ExactAudioCopyFreeDBPlugin 1.0
#
DISCID=8d0b640b
DTITLE=Chris Thomas King - The Legend of Tommy Johnson
DYEAR=2001
DGENRE=Blues
TTITLE0=O Brother, Where Art Thou?
TTITLE1=Trouble Will Soon Be Over
TTITLE2=Canned Heat Blues
TTITLE3=Flooded in the Delta
TTITLE4=Watermelon Man
TTITLE5=John Law Burned Down the Liquor Sto'
TTITLE6=Red Shoes
TTITLE7=Bonnie and Clyde in D Minor
TTITLE8=Do Fries go with that Shake?
TTITLE9=O Brother, Where Art Thou? (Reprise)
TTITLE10=Spread the Glory (Requiem)
EXTD=YEAR: 2001
EXTT0=
EXTT1=
EXTT2=
EXTT3=
EXTT4=
EXTT5=
EXTT6=
EXTT7=
EXTT8=
EXTT9=
EXTT10=
PLAYORDER=
